<?xml version="1.0" standalone="no"?>
<!DOCTYPE svg PUBLIC "-//W3C//DTD SVG 20010904//EN"
 "http://www.w3.org/TR/2001/REC-SVG-20010904/DTD/svg10.dtd">
<svg version="1.0" xmlns="http://www.w3.org/2000/svg"
 width="271.000000pt" height="36.000000pt" viewBox="0 0 271.000000 36.000000"
 preserveAspectRatio="xMidYMid meet">
<metadata>
Created by potrace 1.16, written by Peter Selinger 2001-2019
</metadata>
<g transform="translate(0.000000,36.000000) scale(0.100000,-0.100000)"
fill="#000000" stroke="none">
<path d="M0 180 l0 -180 1355 0 1355 0 0 180 0 180 -1355 0 -1355 0 0 -180z
m480 167 c0 -2 -28 -70 -63 -152 -61 -144 -65 -150 -95 -153 l-31 -3 35 83
c20 46 49 116 66 156 27 66 32 72 59 72 16 0 29 -1 29 -3z m-210 -87 c0 -16
-15 -28 -62 -48 l-61 -28 49 -18 c27 -11 55 -23 62 -29 13 -10 17 -47 5 -47
-5 0 -45 17 -90 37 -110 50 -110 65 -5 115 91 43 102 45 102 18z m630 -37 l0
-38 25 38 c18 26 33 37 51 37 27 0 25 -9 -15 -60 l-20 -25 35 -47 34 -48 -30
0 c-23 0 -35 8 -55 37 l-25 38 0 -38 c0 -30 -4 -37 -20 -37 -19 0 -20 7 -20
90 0 83 1 90 20 90 16 0 20 -7 20 -37z m721 27 c24 -13 26 -66 2 -92 -9 -10
-29 -18 -45 -18 -24 0 -28 -4 -28 -30 0 -23 -4 -30 -20 -30 -19 0 -20 7 -20
90 l0 90 46 0 c25 0 54 -5 65 -10z m727 -10 c32 -30 31 -102 -3 -135 -20 -21
-34 -25 -80 -25 l-55 0 0 90 0 90 58 0 c45 0 63 -5 80 -20z m-586 -47 c22 -20
23 -70 1 -95 -24 -27 -87 -24 -107 4 -22 31 -20 64 4 88 24 24 77 26 102 3z"/>
</g>
</svg>
